# xmcd
#
# Track frame offsets:
#	150
#	17490
#	36600
#	51777
#	68942
#	84080
#	103717
#	126530
#	144922
#	167734
#	181752
#	209847
#	226555
#	241142
#
# Disc length: 3440
#
# Revision: 1
# Processed by: cddbd v1.5.1PL0 Copyright (c) Steve Scherf et al.
# Submitted via: FreeRIP 2.53 
# Normalized: r0:DSETVAR1,TDELIM( - )
#
DISCID=b90d6e0e
DTITLE=Various Artist - The Alligator Records Blues Festival (Promotion)
DYEAR=1900
DGENRE=Blues
TTITLE0=Hound Dog Taylor and The Houserockers - She's Gone
TTITLE1=Corey Harris and Henry Butler - If You Let A Man Kick You Once
TTITLE2=Katie Webster - Two Fisted Mama
TTITLE3=Little Charlie and The Nightcats - New Old Lady
TTITLE4=Rusty Zinn - She's Got Style
TTITLE5=Lonnie Brooks, Long John Hunter and Phillip Walker - A Little More Time
TTITLE6=Shemekiah Copeland - Steamy Windows
TTITLE7=Coco Montoya - I Need Your Love In My Life
TTITLE8=Koko Taylor - Ernestine
TTITLE9=Cephas and Wiggins - Meeting The Mule
TTITLE10=Corey Harris - Lynch Blues
TTITLE11=Gaye Adegbalola - The Dog Was Here First
TTITLE12=William Clarke - Fishing Blues
TTITLE13=Lil' Ed and The Imperials - Compact Man
EXTD=
EXTT0=
EXTT1=
EXTT2=
EXTT3=
EXTT4=
EXTT5=
EXTT6=
EXTT7=
EXTT8=
EXTT9=
EXTT10=
EXTT11=
EXTT12=
EXTT13=
PLAYORDER=
